<svg viewBox="0 0 100 130" xmlns="http://www.w3.org/2000/svg">
    <!-- Playful Teen Puppy (Avatar 6 style with body) -->
    <!-- Medium Body -->
    <path d="M50 120 Q30 120 30 95 L30 75 Q30 60 50 60 Q70 60 70 75 L70 95 Q70 120 50 120 Z" fill="#A1887F" stroke="#795548" stroke-width="2.5" />
    <path d="M50 120 Q35 120 35 100 Q35 80 50 80 Q65 80 65 100 Q65 120 50 120 Z" fill="white" opacity="0.3" /> <!-- belly -->
    <!-- Medium Floppy Ears -->
    <rect x="20" y="38" width="16" height="32" rx="8" fill="#795548" />
    <rect x="64" y="38" width="16" height="32" rx="8" fill="#795548" />
    <!-- Head -->
    <circle cx="50" cy="55" r="35" fill="#A1887F" />
    <!-- Happy Eyes -->
    <circle cx="40" cy="50" r="4.5" fill="#212121" />
    <circle cx="60" cy="50" r="4.5" fill="#212121" />
    <!-- Growing Tongue -->
    <path d="M46 72 Q50 82 54 72" fill="#FF80AB" />
    <!-- Tail (Wagging) -->
    <path d="M75 105 Q90 95 85 85" fill="none" stroke="#A1887F" stroke-width="6" stroke-linecap="round" />
    <!-- Paws -->
    <circle cx="35" cy="118" r="10" fill="#A1887F" stroke="#795548" stroke-width="2" />
    <circle cx="65" cy="118" r="10" fill="#A1887F" stroke="#795548" stroke-width="2" />
</svg>
