<svg width="1920" height="1080" viewBox="0 0 1920 1080" fill="none" xmlns="http://www.w3.org/2000/svg">
    <!-- Main Background -->
    <rect width="1920" height="1080" fill="#FFF9E6"/>
    
    <!-- Large Soft Circles (Glows) -->
    <circle cx="200" cy="200" r="400" fill="#FF80AB" fill-opacity="0.05"/>
    <circle cx="1700" cy="800" r="450" fill="#4FC3F7" fill-opacity="0.05"/>
    <circle cx="1000" cy="540" r="500" fill="#FFD54F" fill-opacity="0.03"/>

    <!-- Clouds -->
    <g opacity="0.6">
        <path d="M150 400C150 344.772 194.772 300 250 300C283.435 300 312.871 316.398 330.655 341.603C340.407 334.332 352.457 330 365.111 330C392.497 330 414.636 352.174 414.167 379.544C440.686 385.088 460 408.232 460 436C460 468.585 433.585 495 401 495H209C176.415 495 150 468.585 150 436V400Z" fill="white"/>
        <path d="M1400 150C1400 105.817 1435.82 70 1480 70C1506.75 70 1530.3 83.1186 1544.53 103.282C1552.33 97.4655 1561.97 94 1572.09 94C1594 94 1611.71 111.739 1611.34 133.635C1632.55 138.07 1648 156.586 1648 178.8C1648 204.867 1626.87 226 1600.8 226H1447.2C1421.13 226 1400 204.867 1400 178.8V150Z" fill="white"/>
    </g>

    <!-- Bubbles -->
    <circle cx="100" cy="800" r="25" fill="#FF80AB" fill-opacity="0.2"/>
    <circle cx="1800" cy="300" r="40" fill="#4FC3F7" fill-opacity="0.15"/>
    <circle cx="1600" cy="900" r="15" fill="#FFD54F" fill-opacity="0.25"/>
    <circle cx="400" cy="150" r="20" fill="#CE93D8" fill-opacity="0.2"/>
    <circle cx="1200" cy="1000" r="30" fill="#FF8A65" fill-opacity="0.15"/>

    <!-- Stars -->
    <path d="M800 100L805.225 116.077L822.131 116.077L808.453 126.015L813.678 142.092L800 132.154L786.322 142.092L791.547 126.015L777.869 116.077L794.775 116.077L800 100Z" fill="#FFD54F" fill-opacity="0.4"/>
    <path d="M1100 800L1102.61 808.039L1111.07 808.039L1104.23 813.007L1106.84 821.046L1100 816.077L1093.16 821.046L1095.77 813.007L1088.93 808.039L1097.39 808.039L1100 800Z" fill="#FF80AB" fill-opacity="0.3"/>
    <path d="M300 950L303.483 1005.72L314.754 1005.72L305.635 1012.34L309.119 1023.06L300 1016.44L290.881 1023.06L294.365 1012.34L285.246 1005.72L296.517 1005.72L300 950Z" fill="#4FC3F7" fill-opacity="0.2" transform="scale(0.3) translate(100, 100)"/>

    <!-- Abstract wavy shapes -->
    <path d="M0 1080V1000C200 950 400 1050 600 1000C800 950 1000 1050 1200 1000C1400 950 1600 1050 1920 1000V1080H0Z" fill="#4FC3F7" fill-opacity="0.05"/>
    <path d="M1920 0V80C1700 130 1500 30 1300 80C1100 130 900 30 700 80C500 130 300 30 0 80V0H1920Z" fill="#FF80AB" fill-opacity="0.05"/>
</svg>
