<svg width="400" height="500" viewBox="0 0 400 500" fill="none" xmlns="http://www.w3.org/2000/svg">
  <rect x="18" y="26" width="370" height="460" rx="38" fill="#E0E0E0"/>
  <rect x="8" y="8" width="384" height="484" rx="38" fill="white"/>
  <rect x="22" y="22" width="356" height="456" rx="28" fill="#FFCCBC"/>
  <path d="M22 430 H378 V458 Q378 470 366 470 H34 Q22 470 22 458 Z" fill="#FF8A65"/>
  <text x="200" y="456" font-family="Arial Rounded MT Bold, Arial, sans-serif" font-size="22" font-weight="bold" fill="#5D4037" text-anchor="middle">Frustrated</text>
  
  <rect x="120" y="150" width="160" height="160" rx="20" fill="#FFAB91" stroke="#D84315" stroke-width="8"/>
  <path d="M160 190 L180 210 M160 210 L180 190 M220 190 L240 210 M220 210 L240 190" stroke="#D84315" stroke-width="6" stroke-linecap="round"/>
  <path d="M170 260 Q200 240 230 260" stroke="#D84315" stroke-width="6" fill="none" stroke-linecap="round"/>
  <path d="M140 150 L120 120 M260 150 L280 120" stroke="#D84315" stroke-width="5" stroke-linecap="round"/>
</svg>
