<svg viewBox="0 0 100 120" xmlns="http://www.w3.org/2000/svg">
    <!-- Tiny Baby Butterfly (Avatar 12 style) -->
    <!-- Small Round Body -->
    <path d="M50 110 Q40 110 35 95 Q35 80 50 80 Q65 80 65 95 Q65 110 50 110 Z" fill="#4A148C" />
    <!-- Small Wings -->
    <path d="M35 85 Q20 70 35 60 Q50 75 35 85" fill="#E1BEE7" stroke="#9C27B0" stroke-width="1.5" />
    <path d="M65 85 Q80 70 65 60 Q50 75 65 85" fill="#E1BEE7" stroke="#9C27B0" stroke-width="1.5" />
    <!-- Head -->
    <circle cx="50" cy="55" r="28" fill="#F3E5F5" stroke="#9C27B0" stroke-width="1" />
    <!-- Big Sparkly Eyes -->
    <circle cx="42" cy="50" r="5" fill="#4A148C" />
    <circle cx="58" cy="50" r="5" fill="#4A148C" />
    <circle cx="44" cy="48" r="2.5" fill="white" />
    <circle cx="60" cy="48" r="2.5" fill="white" />
    <!-- Tiny Antennae -->
    <path d="M48 35 Q45 25 40 30 M52 35 Q55 25 60 30" stroke="#4A148C" stroke-width="1.5" fill="none" />
</svg>
