<svg viewBox="0 0 100 160" xmlns="http://www.w3.org/2000/svg">
    <!-- Majestic Adult Monkey (Avatar 7 style with body) -->
    <!-- Large Rounded Body -->
    <rect x="25" y="80" width="50" height="70" rx="25" fill="#8D6E63" stroke="#5D4037" stroke-width="3" />
    <ellipse cx="50" cy="120" rx="20" ry="25" fill="#D7CCC8" opacity="0.4" /> <!-- belly -->
    
    <!-- Large Round Ears (Based on Avatar 7) -->
    <circle cx="20" cy="50" r="15" fill="#8D6E63" />
    <circle cx="20" cy="50" r="8" fill="#D7CCC8" />
    <circle cx="80" cy="50" r="15" fill="#8D6E63" />
    <circle cx="80" cy="50" r="8" fill="#D7CCC8" />
    <style>
        .eye-blink { animation: blink 5s infinite; transform-origin: 50% 48px; }
        @keyframes blink {
            0%, 94%, 100% { transform: scaleY(1); }
            97% { transform: scaleY(0.1); }
        }
        .tail-wag { animation: wag 4s infinite ease-in-out; transform-origin: 75px 120px; }
        @keyframes wag {
            0%, 100% { transform: rotate(0deg); }
            50% { transform: rotate(10deg); }
        }
    </style>

    <!-- Head (Based on Avatar 7) -->
    <circle cx="50" cy="55" r="35" fill="#8D6E63" />
    <ellipse cx="50" cy="65" rx="20" ry="15" fill="#D7CCC8" />
    <circle cx="45" cy="65" r="2" fill="#333" />
    <circle cx="55" cy="65" r="2" fill="#333" />
    <!-- Eyes (Blinking) -->
    <g class="eye-blink">
        <circle cx="38" cy="48" r="4" fill="#333" />
        <circle cx="62" cy="48" r="4" fill="#333" />
    </g>
    
    <!-- Long Curled Tail -->
    <path class="tail-wag" d="M75 120 Q105 120 105 90 Q105 60 85 75" fill="none" stroke="#8D6E63" stroke-width="12" stroke-linecap="round" />
    <!-- Sturdy Brown Paws -->
    <circle cx="25" cy="150" r="12" fill="#8D6E63" stroke="#5D4037" stroke-width="2" />
    <circle cx="75" cy="150" r="12" fill="#8D6E63" stroke="#5D4037" stroke-width="2" />
    <circle cx="20" cy="110" r="12" fill="#8D6E63" stroke="#5D4037" stroke-width="2" />
    <circle cx="80" cy="110" r="12" fill="#8D6E63" stroke="#5D4037" stroke-width="2" />
</svg>
