<svg viewBox="0 0 100 120" xmlns="http://www.w3.org/2000/svg">
    <!-- Tiny Baby Monkey (Avatar 7 style) -->
    <!-- Small Round Body -->
    <path d="M50 110 Q35 110 30 95 Q30 80 50 80 Q70 80 70 95 Q70 110 50 110 Z" fill="#8D6E63" />
    <path d="M50 110 Q42 110 40 100 Q40 90 50 90 Q60 90 60 100 Q60 110 50 110 Z" fill="#D7CCC8" opacity="0.4" /> <!-- belly -->
    <!-- Ear (Avatar 7 style) -->
    <circle cx="20" cy="55" r="10" fill="#8D6E63" />
    <circle cx="20" cy="55" r="5" fill="#D7CCC8" />
    <circle cx="80" cy="55" r="10" fill="#8D6E63" />
    <circle cx="80" cy="55" r="5" fill="#D7CCC8" />
    <!-- Head -->
    <circle cx="50" cy="55" r="32" fill="#8D6E63" />
    <!-- Big Sparkly Eyes -->
    <circle cx="42" cy="50" r="5" fill="#212121" />
    <circle cx="58" cy="50" r="5" fill="#212121" />
    <circle cx="44" cy="48" r="2" fill="white" />
    <circle cx="60" cy="48" r="2" fill="white" />
    <!-- Muzzle -->
    <ellipse cx="50" cy="62" rx="12" ry="8" fill="#D7CCC8" />
    <circle cx="50" cy="62" r="2" fill="#212121" /> <!-- nose -->
</svg>
