<svg viewBox="0 0 100 130" xmlns="http://www.w3.org/2000/svg">
    <!-- Playful Teen Monkey (Avatar 7 style with body) -->
    <!-- Medium Body -->
    <path d="M50 120 Q30 120 30 95 L30 75 Q30 60 50 60 Q70 60 70 75 L70 95 Q70 120 50 120 Z" fill="#8D6E63" stroke="#5D4037" stroke-width="2.5" />
    <path d="M50 120 Q35 120 35 100 Q35 80 50 80 Q65 80 65 100 Q65 120 50 120 Z" fill="#D7CCC8" opacity="0.3" /> <!-- belly -->
    <!-- Medium Ears -->
    <circle cx="20" cy="50" r="12" fill="#8D6E63" />
    <circle cx="20" cy="50" r="6" fill="#D7CCC8" />
    <circle cx="80" cy="50" r="12" fill="#8D6E63" />
    <circle cx="80" cy="50" r="6" fill="#D7CCC8" />
    <style>
        .eye-blink { animation: blink 5s infinite; transform-origin: 50% 50px; }
        @keyframes blink {
            0%, 94%, 100% { transform: scaleY(1); }
            97% { transform: scaleY(0.1); }
        }
        .tail-wag { animation: wag 4s infinite ease-in-out; transform-origin: 70px 110px; }
        @keyframes wag {
            0%, 100% { transform: rotate(0deg); }
            50% { transform: rotate(12deg); }
        }
    </style>

    <!-- Head -->
    <circle cx="50" cy="55" r="38" fill="#8D6E63" />
    <ellipse cx="50" cy="62" rx="15" ry="10" fill="#D7CCC8" opacity="0.4" />
    <!-- Mouth -->
    <path d="M45 68 Q50 72 55 68" stroke="#5D4037" stroke-width="1.5" fill="none" stroke-linecap="round" />
    <!-- Eyes (Blinking) -->
    <g class="eye-blink">
        <circle cx="40" cy="50" r="4.5" fill="#212121" />
        <circle cx="60" cy="50" r="4.5" fill="#212121" />
    </g>
    <!-- Growing Tail (Curled) -->
    <path class="tail-wag" d="M70 110 Q85 110 85 95 Q85 85 75 90" fill="none" stroke="#8D6E63" stroke-width="6" stroke-linecap="round" />
    <!-- Paws -->
    <circle cx="35" cy="118" r="10" fill="#8D6E63" stroke="#5D4037" stroke-width="2" />
    <circle cx="65" cy="118" r="10" fill="#8D6E63" stroke="#5D4037" stroke-width="2" />
    <!-- Arms -->
    <circle cx="20" cy="90" r="8" fill="#8D6E63" stroke="#5D4037" stroke-width="1.5" />
    <circle cx="80" cy="90" r="8" fill="#8D6E63" stroke="#5D4037" stroke-width="1.5" />
</svg>
