<svg viewBox="0 0 100 150" xmlns="http://www.w3.org/2000/svg">
    <!-- Majestic Adult Elephant (Avatar 2 style with body) -->
    <!-- Large Rounded Body -->
    <rect x="15" y="70" width="70" height="70" rx="35" fill="#BBDEFB" stroke="#90CAF9" stroke-width="3" />
    <ellipse cx="50" cy="110" rx="30" ry="25" fill="#90CAF9" opacity="0.3" /> <!-- belly -->
    
    <!-- Large Floppy Ears (Based on Avatar 2) -->
    <ellipse cx="25" cy="50" rx="20" ry="25" fill="#90CAF9" />
    <ellipse cx="75" cy="50" rx="20" ry="25" fill="#90CAF9" />
    <ellipse cx="28" cy="50" rx="12" ry="18" fill="#BBDEFB" /> <!-- Inner ear -->
    <ellipse cx="72" cy="50" rx="12" ry="18" fill="#BBDEFB" /> <!-- Inner ear -->
    <!-- Head -->
    <circle cx="50" cy="50" r="32" fill="#BBDEFB" />
    <!-- Eyes -->
    <circle cx="40" cy="45" r="4" fill="#212121" />
    <circle cx="60" cy="45" r="4" fill="#212121" />
    <circle cx="41" cy="43" r="1.5" fill="white" />
    <circle cx="61" cy="43" r="1.5" fill="white" />
    <!-- Long Trunk (Based on Avatar 2) -->
    <path d="M50 55 L50 70 Q50 85 35 85" stroke="#BBDEFB" stroke-width="12" stroke-linecap="round" fill="none" />
    <path d="M46 62 L54 62 M46 67 L54 67" stroke="#90CAF9" stroke-width="2" stroke-linecap="round" />
    <!-- Large Sturdy Paws -->
    <circle cx="25" cy="140" r="12" fill="#BBDEFB" stroke="#90CAF9" stroke-width="2" />
    <circle cx="75" cy="140" r="12" fill="#BBDEFB" stroke="#90CAF9" stroke-width="2" />
</svg>
