<svg viewBox="0 0 1000 1000" xmlns="http://www.w3.org/2000/svg">
    <defs>
        <radialGradient id="night-bg" cx="50%" cy="50%" r="50%" fx="50%" fy="50%">
            <stop offset="0%" stop-color="#1A237E" />
            <stop offset="100%" stop-color="#0D1117" />
        </radialGradient>
        <radialGradient id="moon-glow" cx="50%" cy="50%" r="50%">
            <stop offset="0%" stop-color="#FFF9C4" stop-opacity="1" />
            <stop offset="100%" stop-color="#FFF9C4" stop-opacity="0" />
        </radialGradient>
        <linearGradient id="tree-grad" x1="0" y1="0" x2="0" y2="1">
            <stop offset="0%" stop-color="#3E2723" />
            <stop offset="100%" stop-color="#1B110E" />
        </linearGradient>
    </defs>

    <style>
        .star { animation: twinkle 3s infinite ease-in-out; }
        .star:nth-child(2n) { animation-delay: 1s; }
        .star:nth-child(3n) { animation-delay: 2s; }
        @keyframes twinkle {
            0%, 100% { opacity: 0.3; transform: scale(0.8); }
            50% { opacity: 1; transform: scale(1.1); }
        }
        .moon-pulse { animation: pulse 4s infinite ease-in-out; transform-origin: 800px 200px; }
        @keyframes pulse {
            0%, 100% { transform: scale(1); opacity: 0.2; }
            50% { transform: scale(1.1); opacity: 0.3; }
        }
    </style>

    <!-- Background -->
    <rect width="1000" height="1000" fill="url(#night-bg)" />
    
    <!-- Stars -->
    <g transform-origin="center">
        <circle class="star" cx="100" cy="150" r="1.5" fill="white" />
        <circle class="star" cx="200" cy="80" r="1.2" fill="white" />
        <circle class="star" cx="400" cy="220" r="1.8" fill="white" />
        <circle class="star" cx="750" cy="100" r="1.3" fill="white" />
        <circle class="star" cx="880" cy="300" r="1.5" fill="white" />
        <circle class="star" cx="150" cy="350" r="1.2" fill="white" />
        <circle class="star" cx="920" cy="50" r="1.4" fill="white" />
    </g>

    <!-- Distant Forest Silhouette -->
    <path d="M0 900 L50 850 L120 880 L180 840 L250 870 L320 830 L400 860 L480 840 L550 870 L620 830 L700 860 L780 840 L850 870 L920 840 L1000 900 V1000 H0 Z" fill="#0A0F14" />
    
    <!-- Moon -->
    <circle class="moon-pulse" cx="800" cy="200" r="120" fill="url(#moon-glow)" />
    <circle cx="800" cy="200" r="60" fill="#FFF9C4" />
    <circle cx="780" cy="180" r="15" fill="#FCE94F" opacity="0.3" />
    <circle cx="830" cy="220" r="12" fill="#FCE94F" opacity="0.3" />

    <!-- Main Tree Branch -->
    <path d="M0 700 Q150 720 300 680 T500 700 T750 650 T1000 710" stroke="url(#tree-grad)" stroke-width="30" fill="none" stroke-linecap="round" />
    <path d="M750 650 Q800 600 900 620" stroke="url(#tree-grad)" stroke-width="15" fill="none" stroke-linecap="round" />
    <path d="M300 680 Q350 630 400 640" stroke="url(#tree-grad)" stroke-width="15" fill="none" stroke-linecap="round" />

    <!-- Leaves -->
    <ellipse cx="280" cy="670" rx="20" ry="10" fill="#1B5E20" transform="rotate(-20, 280, 670)" />
    <ellipse cx="320" cy="675" rx="18" ry="8" fill="#2E7D32" transform="rotate(10, 320, 675)" />
    <ellipse cx="450" cy="650" rx="22" ry="12" fill="#1B5E20" transform="rotate(-40, 450, 650)" />
    <ellipse cx="780" cy="630" rx="20" ry="10" fill="#2E7D32" transform="rotate(30, 780, 630)" />
    <ellipse cx="880" cy="610" rx="18" ry="8" fill="#1B5E20" transform="rotate(-10, 880, 610)" />

    <!-- Mist at bottom -->
    <rect x="0" y="850" width="1000" height="150" fill="url(#moon-glow)" opacity="0.05" />
</svg>
