<svg width="400" height="500" viewBox="0 0 400 500" fill="none" xmlns="http://www.w3.org/2000/svg">
  <!-- Card frame -->
  <rect x="18" y="26" width="370" height="460" rx="38" fill="#E0E0E0"/>
  <rect x="8" y="8" width="384" height="484" rx="38" fill="white"/>
  <rect x="22" y="22" width="356" height="456" rx="28" fill="#E1F5FE"/>

  <!-- Label bar -->
  <path d="M22 430 H378 V458 Q378 470 366 470 H34 Q22 470 22 458 Z" fill="#29B6F6"/>
  <text x="200" y="456" font-family="Arial Rounded MT Bold, Arial, sans-serif" font-size="22" font-weight="bold" fill="#01579B" text-anchor="middle">Feeling Lonely</text>

  <!-- Illustration: Lonely child on an island -->
  <ellipse cx="200" cy="380" rx="120" ry="40" fill="#B3E5FC" stroke="#039BE5" stroke-width="4" stroke-dasharray="10 6"/>
  
  <ellipse cx="200" cy="240" rx="60" ry="70" fill="#FFCC80" stroke="#EF6C00" stroke-width="5"/>
  <path d="M145 230 Q145 160 200 150 Q255 160 255 230" fill="#5D4037"/>
  
  <!-- Eyes - looking down/aside -->
  <circle cx="180" cy="240" r="7" fill="#333"/>
  <circle cx="215" cy="240" r="7" fill="#333"/>
  <path d="M188 265 Q200 255 212 265" stroke="#BF360C" stroke-width="4" fill="none" stroke-linecap="round"/>

  <!-- Lone cloud -->
  <path d="M70 120 Q50 120 50 100 Q50 75 75 75 Q75 60 100 60 Q130 60 130 85 Q150 85 150 105 Q150 125 130 125 H70Z" fill="white" stroke="#B3E5FC" stroke-width="4"/>
</svg>
