<svg width="400" height="500" viewBox="0 0 400 500" fill="none" xmlns="http://www.w3.org/2000/svg">
  <rect x="18" y="26" width="370" height="460" rx="38" fill="#E0E0E0"/>
  <rect x="8" y="8" width="384" height="484" rx="38" fill="white"/>
  <rect x="22" y="22" width="356" height="456" rx="28" fill="#B3E5FC"/>
  <path d="M22 430 H378 V458 Q378 470 366 470 H34 Q22 470 22 458 Z" fill="#4FC3F7"/>
  <text x="200" y="456" font-family="Arial Rounded MT Bold, Arial, sans-serif" font-size="22" font-weight="bold" fill="#5D4037" text-anchor="middle">Left Out</text>
  
  <!-- Illustration: Lonely little cloud or monster -->
  <path d="M150 250 Q130 250 130 220 Q130 180 170 180 Q170 150 200 150 Q240 150 240 190 Q270 190 270 220 Q270 250 250 250 H150Z" fill="white" stroke="#1976D2" stroke-width="6"/>
  <circle cx="180" cy="200" r="4" fill="#1565C0"/>
  <circle cx="220" cy="200" r="4" fill="#1565C0"/>
  <path d="M190 225 Q200 215 210 225" stroke="#1565C0" stroke-width="3" fill="none" stroke-linecap="round"/>
  
  <!-- Distant friends -->
  <g opacity="0.4" transform="scale(0.6) translate(450, 200)">
    <circle cx="50" cy="50" r="40" fill="#4FC3F7"/>
    <circle cx="150" cy="50" r="40" fill="#4FC3F7"/>
  </g>
</svg>
