<svg width="400" height="500" viewBox="0 0 400 500" fill="none" xmlns="http://www.w3.org/2000/svg">
  <rect x="18" y="26" width="370" height="460" rx="38" fill="#E0E0E0"/>
  <rect x="8" y="8" width="384" height="484" rx="38" fill="white"/>
  <rect x="22" y="22" width="356" height="456" rx="28" fill="#F8BBD0"/>
  <path d="M22 430 H378 V458 Q378 470 366 470 H34 Q22 470 22 458 Z" fill="#F06292"/>
  <text x="200" y="456" font-family="Arial Rounded MT Bold, Arial, sans-serif" font-size="22" font-weight="bold" fill="#5D4037" text-anchor="middle">Scared of Dark</text>
  
  <rect x="100" y="150" width="200" height="150" rx="20" fill="#311B92"/>
  <circle cx="150" cy="200" r="15" fill="#FFEB3B"/>
  <circle cx="250" cy="200" r="15" fill="#FFEB3B"/>
  <path d="M180 250 Q200 240 220 250" stroke="white" stroke-width="4" fill="none" stroke-linecap="round"/>
  <path d="M130 180 Q150 160 170 180 M230 180 Q250 160 270 180" stroke="#FFEB3B" stroke-width="4" fill="none"/>
</svg>
